<svg xmlns="http://www.w3.org/2000/svg" xmlns:xlink="http://www.w3.org/1999/xlink" width="189" zoomAndPan="magnify" viewBox="0 0 141.75 141.750002" height="189" preserveAspectRatio="xMidYMid meet" version="1.0"><defs><clipPath id="c51a7426c6"><path d="M 2.417969 2.417969 L 139.066406 2.417969 L 139.066406 139.066406 L 2.417969 139.066406 Z M 2.417969 2.417969 " clip-rule="nonzero"/></clipPath><clipPath id="44e7c66b85"><path d="M 70.742188 2.417969 C 33.007812 2.417969 2.417969 33.007812 2.417969 70.742188 C 2.417969 108.476562 33.007812 139.066406 70.742188 139.066406 C 108.476562 139.066406 139.066406 108.476562 139.066406 70.742188 C 139.066406 33.007812 108.476562 2.417969 70.742188 2.417969 Z M 70.742188 2.417969 " clip-rule="nonzero"/></clipPath></defs><g clip-path="url(#c51a7426c6)"><g clip-path="url(#44e7c66b85)"><path fill="#000000" d="M 2.417969 2.417969 L 139.066406 2.417969 L 139.066406 139.066406 L 2.417969 139.066406 Z M 2.417969 2.417969 " fill-opacity="1" fill-rule="nonzero"/></g></g><path fill="#fefefe" d="M 73.738281 65.882812 L 74.628906 65.882812 L 76.28125 65.949219 L 77.425781 66.074219 L 78.507812 66.328125 L 79.527344 66.773438 L 80.226562 67.285156 L 80.734375 67.859375 L 81.179688 68.75 L 81.371094 69.386719 L 81.433594 69.832031 L 81.5 75.179688 L 83.34375 75.433594 L 83.34375 77.28125 L 81.5625 77.34375 L 79.78125 77.34375 L 79.71875 77.21875 L 79.652344 75.6875 L 79.652344 74.859375 L 79.464844 74.925781 L 79.273438 75.6875 L 79.019531 76.199219 L 78.636719 76.644531 L 77.9375 77.089844 L 76.917969 77.40625 L 76.347656 77.472656 L 75.265625 77.472656 L 74.246094 77.28125 L 73.609375 77.027344 L 73.039062 76.582031 L 72.59375 76.070312 L 72.339844 75.5625 L 72.148438 74.796875 L 72.148438 73.714844 L 72.339844 72.886719 L 72.722656 72.1875 L 73.101562 71.742188 L 73.738281 71.296875 L 74.375 70.976562 L 75.203125 70.722656 L 76.027344 70.59375 L 78.191406 70.59375 L 79.335938 70.785156 L 79.207031 69.578125 L 78.828125 68.8125 L 78.316406 68.429688 L 77.492188 68.113281 L 76.792969 67.984375 L 73.546875 67.792969 L 73.546875 67.222656 L 73.675781 66.074219 Z M 76.347656 72.378906 L 75.582031 72.503906 L 74.945312 72.761719 L 74.5 73.140625 L 74.246094 73.714844 L 74.246094 74.351562 L 74.4375 74.925781 L 74.757812 75.308594 L 75.265625 75.5625 L 75.519531 75.625 L 76.917969 75.625 L 77.617188 75.433594 L 78.253906 75.117188 L 78.890625 74.542969 L 79.273438 73.777344 L 79.335938 73.398438 L 79.335938 72.632812 L 79.082031 72.503906 L 78.0625 72.378906 Z M 76.347656 72.378906 " fill-opacity="1" fill-rule="nonzero"/><path fill="#fefefe" d="M 51.476562 65.882812 L 52.8125 65.882812 L 53.765625 66.074219 L 54.527344 66.394531 L 55.230469 66.839844 L 55.863281 67.476562 L 56.375 68.304688 L 56.753906 69.320312 L 56.945312 70.214844 L 57.007812 70.660156 L 57.007812 72.632812 L 56.820312 73.777344 L 56.4375 74.925781 L 55.929688 75.753906 L 55.355469 76.390625 L 54.527344 76.960938 L 53.703125 77.28125 L 52.683594 77.472656 L 51.601562 77.472656 L 50.523438 77.28125 L 49.757812 76.960938 L 49.058594 76.515625 L 48.359375 75.816406 L 47.914062 75.117188 L 47.53125 74.160156 L 47.277344 72.886719 L 47.214844 72.125 L 47.214844 71.230469 L 47.339844 70.023438 L 47.660156 68.8125 L 48.167969 67.792969 L 48.804688 67.03125 L 49.503906 66.519531 L 50.140625 66.203125 L 51.03125 65.949219 Z M 51.539062 67.921875 L 50.902344 68.175781 L 50.265625 68.75 L 49.820312 69.640625 L 49.632812 70.402344 L 49.566406 70.851562 L 49.566406 72.503906 L 49.757812 73.523438 L 50.078125 74.289062 L 50.523438 74.859375 L 51.03125 75.242188 L 51.601562 75.433594 L 52.621094 75.433594 L 53.320312 75.179688 L 53.828125 74.734375 L 54.210938 74.222656 L 54.527344 73.398438 L 54.65625 72.761719 L 54.71875 72.125 L 54.71875 71.167969 L 54.59375 70.214844 L 54.339844 69.386719 L 54.019531 68.8125 L 53.636719 68.367188 L 53.066406 68.046875 L 52.683594 67.921875 Z M 51.539062 67.921875 " fill-opacity="1" fill-rule="nonzero"/><path fill="#fefefe" d="M 9.621094 62.316406 L 18.71875 62.316406 L 18.71875 64.292969 L 15.21875 64.292969 L 15.21875 75.242188 L 18.71875 75.242188 L 18.71875 77.28125 L 9.621094 77.28125 L 9.621094 75.242188 L 13.121094 75.242188 L 13.121094 64.292969 L 9.621094 64.292969 Z M 9.621094 62.316406 " fill-opacity="1" fill-rule="nonzero"/><path fill="#fefefe" d="M 39.707031 65.882812 L 40.980469 65.882812 L 42 66.136719 L 42.761719 66.585938 L 43.207031 67.03125 L 43.652344 67.730469 L 43.96875 68.683594 L 44.035156 69.066406 L 44.035156 77.28125 L 41.808594 77.28125 L 41.742188 69.386719 L 41.488281 68.683594 L 41.171875 68.238281 L 40.597656 67.921875 L 40.34375 67.859375 L 39.199219 67.859375 L 38.5625 68.046875 L 37.992188 68.429688 L 37.609375 69.003906 L 37.355469 69.703125 L 37.226562 70.660156 L 37.164062 77.28125 L 34.9375 77.28125 L 34.9375 66.074219 L 36.972656 66.074219 L 37.164062 67.859375 L 37.164062 68.113281 L 37.417969 68.113281 L 37.480469 67.476562 L 37.800781 66.839844 L 38.117188 66.457031 L 39.007812 66.011719 Z M 39.707031 65.882812 " fill-opacity="1" fill-rule="nonzero"/><path fill="#fefefe" d="M 27.050781 65.882812 L 28.257812 65.882812 L 29.148438 66.074219 L 29.914062 66.457031 L 30.484375 66.964844 L 30.929688 67.667969 L 31.183594 68.238281 L 31.375 69.128906 L 31.375 77.28125 L 29.148438 77.28125 L 29.085938 69.449219 L 28.894531 68.8125 L 28.511719 68.238281 L 27.941406 67.921875 L 27.6875 67.859375 L 26.542969 67.859375 L 25.90625 68.046875 L 25.332031 68.429688 L 24.953125 69.003906 L 24.695312 69.640625 L 24.570312 70.46875 L 24.507812 77.28125 L 22.28125 77.28125 L 22.28125 66.074219 L 24.316406 66.074219 L 24.507812 68.113281 L 24.761719 68.113281 L 24.761719 67.667969 L 25.078125 66.902344 L 25.460938 66.457031 L 26.03125 66.136719 L 26.605469 65.949219 Z M 27.050781 65.882812 " fill-opacity="1" fill-rule="nonzero"/><path fill="#e22a70" d="M 117.375 60.027344 L 118.898438 60.027344 L 119.601562 60.21875 L 119.410156 61.746094 L 119.34375 62 L 118.582031 61.871094 L 118.007812 61.871094 L 117.308594 62.128906 L 116.863281 62.636719 L 116.609375 63.273438 L 116.484375 64.292969 L 116.484375 68.113281 L 116.292969 68.683594 L 115.847656 69.195312 L 115.339844 69.449219 L 114.636719 69.578125 L 114.574219 69.894531 L 115.210938 69.957031 L 115.847656 70.277344 L 116.292969 70.785156 L 116.484375 71.296875 L 116.484375 75.179688 L 116.609375 76.261719 L 116.929688 77.027344 L 117.375 77.535156 L 117.820312 77.726562 L 118.773438 77.726562 L 119.34375 77.597656 L 119.601562 79.253906 L 119.601562 79.445312 L 118.710938 79.636719 L 117.5625 79.636719 L 116.546875 79.382812 L 115.910156 79.0625 L 115.273438 78.492188 L 114.828125 77.917969 L 114.511719 77.21875 L 114.257812 76.261719 L 114.191406 75.753906 L 114.128906 71.742188 L 113.9375 71.359375 L 113.492188 70.976562 L 112.855469 70.722656 L 111.777344 70.53125 L 111.777344 68.875 L 112.792969 68.683594 L 113.683594 68.238281 L 114.066406 67.792969 L 114.128906 67.667969 L 114.191406 63.71875 L 114.382812 62.699219 L 114.703125 61.871094 L 115.148438 61.234375 L 115.464844 60.917969 L 115.910156 60.535156 L 116.609375 60.21875 Z M 117.375 60.027344 " fill-opacity="1" fill-rule="nonzero"/><path fill="#e22a70" d="M 124.625 60.027344 L 126.085938 60.027344 L 126.914062 60.21875 L 127.679688 60.597656 L 128.378906 61.234375 L 128.824219 61.9375 L 129.140625 62.765625 L 129.269531 63.464844 L 129.332031 64.164062 L 129.332031 67.539062 L 129.585938 68.046875 L 130.222656 68.492188 L 131.175781 68.8125 L 131.683594 68.875 L 131.683594 70.53125 L 130.414062 70.785156 L 129.714844 71.167969 L 129.457031 71.488281 L 129.332031 71.867188 L 129.332031 75.179688 L 129.203125 76.390625 L 128.949219 77.28125 L 128.503906 78.171875 L 127.933594 78.808594 L 127.234375 79.253906 L 126.597656 79.507812 L 125.898438 79.636719 L 124.816406 79.636719 L 123.925781 79.445312 L 123.988281 78.554688 L 124.117188 77.664062 L 124.242188 77.597656 L 124.6875 77.726562 L 125.640625 77.726562 L 126.277344 77.40625 L 126.660156 76.835938 L 126.851562 76.324219 L 126.976562 75.6875 L 126.976562 71.488281 L 127.167969 70.851562 L 127.550781 70.339844 L 128.058594 70.023438 L 128.566406 69.894531 L 128.886719 69.894531 L 128.886719 69.511719 L 128.378906 69.511719 L 127.742188 69.257812 L 127.421875 69.003906 L 127.105469 68.429688 L 126.976562 67.984375 L 126.976562 63.847656 L 126.722656 62.828125 L 126.34375 62.253906 L 125.769531 61.9375 L 125.453125 61.871094 L 124.941406 61.871094 L 124.371094 62 L 124.117188 62 L 123.925781 60.597656 L 123.925781 60.21875 L 124.304688 60.089844 Z M 124.625 60.027344 " fill-opacity="1" fill-rule="nonzero"/><path fill="#229ed5" d="M 93.203125 59.960938 L 94.285156 59.960938 L 94.285156 60.597656 L 94.15625 61.679688 L 94.09375 61.808594 L 93.203125 61.871094 L 92.25 62.128906 L 91.359375 62.574219 L 90.59375 63.273438 L 90.085938 63.910156 L 89.578125 64.863281 L 89.132812 66.203125 L 88.878906 67.539062 L 88.75 69.257812 L 88.75 70.148438 L 88.878906 71.933594 L 89.195312 73.523438 L 89.511719 74.480469 L 90.023438 75.496094 L 90.53125 76.199219 L 91.167969 76.835938 L 92.058594 77.34375 L 92.757812 77.597656 L 94.09375 77.789062 L 94.21875 78.425781 L 94.347656 79.574219 L 92.882812 79.574219 L 91.867188 79.382812 L 90.976562 79.0625 L 90.023438 78.554688 L 89.324219 77.980469 L 88.75 77.40625 L 88.050781 76.390625 L 87.542969 75.371094 L 87.03125 73.84375 L 86.777344 72.570312 L 86.652344 71.550781 L 86.585938 70.59375 L 86.585938 68.875 L 86.714844 67.347656 L 86.96875 65.949219 L 87.351562 64.609375 L 87.859375 63.464844 L 88.496094 62.445312 L 89.257812 61.617188 L 89.957031 61.042969 L 90.847656 60.535156 L 91.929688 60.152344 L 92.566406 60.027344 Z M 93.203125 59.960938 " fill-opacity="1" fill-rule="nonzero"/><path fill="#229ed5" d="M 98.609375 59.960938 L 99.753906 59.960938 L 100.960938 60.152344 L 101.917969 60.472656 L 102.871094 60.980469 L 103.570312 61.554688 L 104.269531 62.253906 L 104.90625 63.210938 L 105.414062 64.226562 L 105.859375 65.566406 L 106.179688 67.15625 L 106.304688 68.429688 L 106.304688 70.976562 L 106.113281 72.695312 L 105.796875 74.160156 L 105.351562 75.433594 L 104.714844 76.644531 L 104.078125 77.472656 L 103.316406 78.234375 L 102.363281 78.871094 L 101.28125 79.316406 L 100.007812 79.574219 L 98.609375 79.574219 L 98.671875 78.617188 L 98.800781 77.789062 L 100.136719 77.597656 L 101.027344 77.28125 L 101.726562 76.835938 L 102.296875 76.324219 L 102.933594 75.433594 L 103.441406 74.351562 L 103.761719 73.332031 L 104.015625 72.058594 L 104.144531 70.722656 L 104.144531 68.683594 L 103.953125 67.03125 L 103.632812 65.691406 L 103.253906 64.675781 L 102.742188 63.78125 L 102.042969 62.953125 L 101.21875 62.382812 L 100.515625 62.0625 L 99.691406 61.871094 L 98.800781 61.808594 L 98.609375 60.40625 Z M 98.609375 59.960938 " fill-opacity="1" fill-rule="nonzero"/><path fill="#fefefe" d="M 59.300781 66.074219 L 61.714844 66.074219 L 62.988281 69.957031 L 64.007812 73.140625 L 64.769531 75.496094 L 64.960938 75.5625 L 65.085938 74.988281 L 66.679688 69.894531 L 67.824219 66.203125 L 67.886719 66.074219 L 70.238281 66.074219 L 70.113281 66.648438 L 68.777344 70.53125 L 67.824219 73.269531 L 66.613281 76.769531 L 66.359375 77.472656 L 63.371094 77.472656 L 63.050781 76.707031 L 61.84375 73.269531 L 59.617188 67.03125 Z M 59.300781 66.074219 " fill-opacity="1" fill-rule="nonzero"/></svg>